<mxfile host="app.diagrams.net" agent="Mozilla/5.0 (Windows NT 10.0; Win64; x64; rv:141.0) Gecko/20100101 Firefox/141.0" version="28.0.7">
  <diagram name="PÃ¡gina-1" id="TMDoCD8hCcpHIJEySzZF">
    <mxGraphModel dx="601" dy="336" grid="1" gridSize="10" guides="1" tooltips="1" connect="1" arrows="1" fold="1" page="1" pageScale="1" pageWidth="827" pageHeight="1169" math="0" shadow="0">
      <root>
        <mxCell id="0" />
        <mxCell id="1" parent="0" />
        <mxCell id="QcQdOetUA6qP5Ii0NC-2-148" value="" style="rounded=0;whiteSpace=wrap;html=1;" vertex="1" parent="1">
          <mxGeometry x="150" y="120" width="590" height="620" as="geometry" />
        </mxCell>
        <mxCell id="UQOomTZAaCyZAPaUyG3R-46" style="edgeStyle=orthogonalEdgeStyle;rounded=0;orthogonalLoop=1;jettySize=auto;html=1;entryX=0.5;entryY=0.5;entryDx=0;entryDy=-15;entryPerimeter=0;" parent="1" edge="1">
          <mxGeometry relative="1" as="geometry">
            <mxPoint x="414" y="530" as="targetPoint" />
          </mxGeometry>
        </mxCell>
        <mxCell id="QcQdOetUA6qP5Ii0NC-2-26" style="edgeStyle=orthogonalEdgeStyle;rounded=0;orthogonalLoop=1;jettySize=auto;html=1;" edge="1" parent="1" target="QcQdOetUA6qP5Ii0NC-2-22">
          <mxGeometry relative="1" as="geometry">
            <mxPoint x="140" y="710" as="sourcePoint" />
          </mxGeometry>
        </mxCell>
        <mxCell id="QcQdOetUA6qP5Ii0NC-2-146" style="edgeStyle=orthogonalEdgeStyle;rounded=0;orthogonalLoop=1;jettySize=auto;html=1;startArrow=classic;startFill=1;" edge="1" parent="1" source="QcQdOetUA6qP5Ii0NC-2-121" target="QcQdOetUA6qP5Ii0NC-2-136">
          <mxGeometry relative="1" as="geometry" />
        </mxCell>
        <mxCell id="QcQdOetUA6qP5Ii0NC-2-121" value="UserInterface" style="rounded=0;whiteSpace=wrap;html=1;" vertex="1" parent="1">
          <mxGeometry x="185" y="415" width="120" height="60" as="geometry" />
        </mxCell>
        <mxCell id="QcQdOetUA6qP5Ii0NC-2-125" value="&lt;u&gt;&lt;font style=&quot;font-size: 16px;&quot;&gt;Jurassic Park - Horizon Exodus&lt;/font&gt;&lt;/u&gt;" style="text;html=1;align=center;verticalAlign=middle;whiteSpace=wrap;rounded=0;" vertex="1" parent="1">
          <mxGeometry x="329" y="130" width="232" height="30" as="geometry" />
        </mxCell>
        <mxCell id="QcQdOetUA6qP5Ii0NC-2-141" style="edgeStyle=orthogonalEdgeStyle;rounded=0;orthogonalLoop=1;jettySize=auto;html=1;startArrow=classic;startFill=1;" edge="1" parent="1" source="QcQdOetUA6qP5Ii0NC-2-136" target="QcQdOetUA6qP5Ii0NC-2-133">
          <mxGeometry relative="1" as="geometry" />
        </mxCell>
        <mxCell id="QcQdOetUA6qP5Ii0NC-2-142" value="" style="group" vertex="1" connectable="0" parent="1">
          <mxGeometry x="170" y="180" width="150" height="130" as="geometry" />
        </mxCell>
        <mxCell id="QcQdOetUA6qP5Ii0NC-2-140" value="" style="rounded=0;whiteSpace=wrap;html=1;" vertex="1" parent="QcQdOetUA6qP5Ii0NC-2-142">
          <mxGeometry width="150" height="130" as="geometry" />
        </mxCell>
        <mxCell id="QcQdOetUA6qP5Ii0NC-2-126" value="Authenticator" style="rounded=0;whiteSpace=wrap;html=1;" vertex="1" parent="QcQdOetUA6qP5Ii0NC-2-142">
          <mxGeometry x="15" y="20" width="120" height="60" as="geometry" />
        </mxCell>
        <mxCell id="QcQdOetUA6qP5Ii0NC-2-158" value="localhost:8081" style="text;html=1;align=center;verticalAlign=middle;whiteSpace=wrap;rounded=0;" vertex="1" parent="QcQdOetUA6qP5Ii0NC-2-142">
          <mxGeometry x="30" y="90" width="90" height="30" as="geometry" />
        </mxCell>
        <mxCell id="QcQdOetUA6qP5Ii0NC-2-144" style="edgeStyle=orthogonalEdgeStyle;rounded=0;orthogonalLoop=1;jettySize=auto;html=1;startArrow=classic;startFill=1;" edge="1" parent="1" source="QcQdOetUA6qP5Ii0NC-2-140" target="QcQdOetUA6qP5Ii0NC-2-121">
          <mxGeometry relative="1" as="geometry" />
        </mxCell>
        <mxCell id="QcQdOetUA6qP5Ii0NC-2-145" style="edgeStyle=orthogonalEdgeStyle;rounded=0;orthogonalLoop=1;jettySize=auto;html=1;startArrow=classic;startFill=1;" edge="1" parent="1" source="QcQdOetUA6qP5Ii0NC-2-138" target="QcQdOetUA6qP5Ii0NC-2-140">
          <mxGeometry relative="1" as="geometry" />
        </mxCell>
        <mxCell id="QcQdOetUA6qP5Ii0NC-2-147" style="edgeStyle=orthogonalEdgeStyle;rounded=0;orthogonalLoop=1;jettySize=auto;html=1;" edge="1" parent="1" source="QcQdOetUA6qP5Ii0NC-2-133" target="QcQdOetUA6qP5Ii0NC-2-121">
          <mxGeometry relative="1" as="geometry" />
        </mxCell>
        <mxCell id="QcQdOetUA6qP5Ii0NC-2-150" value="" style="group" vertex="1" connectable="0" parent="1">
          <mxGeometry x="400" y="180" width="320" height="130" as="geometry" />
        </mxCell>
        <mxCell id="QcQdOetUA6qP5Ii0NC-2-138" value="" style="rounded=0;whiteSpace=wrap;html=1;movable=1;resizable=1;rotatable=1;deletable=1;editable=1;locked=0;connectable=1;" vertex="1" parent="QcQdOetUA6qP5Ii0NC-2-150">
          <mxGeometry width="320" height="130" as="geometry" />
        </mxCell>
        <mxCell id="QcQdOetUA6qP5Ii0NC-2-107" value="WorkerManager" style="rounded=0;whiteSpace=wrap;html=1;movable=1;resizable=1;rotatable=1;deletable=1;editable=1;locked=0;connectable=1;" vertex="1" parent="QcQdOetUA6qP5Ii0NC-2-150">
          <mxGeometry x="13" y="20" width="120" height="60" as="geometry" />
        </mxCell>
        <mxCell id="QcQdOetUA6qP5Ii0NC-2-109" style="edgeStyle=orthogonalEdgeStyle;rounded=0;orthogonalLoop=1;jettySize=auto;html=1;startArrow=classic;startFill=1;movable=1;resizable=1;rotatable=1;deletable=1;editable=1;locked=0;connectable=1;" edge="1" parent="QcQdOetUA6qP5Ii0NC-2-150" source="QcQdOetUA6qP5Ii0NC-2-108" target="QcQdOetUA6qP5Ii0NC-2-107">
          <mxGeometry relative="1" as="geometry" />
        </mxCell>
        <mxCell id="QcQdOetUA6qP5Ii0NC-2-108" value="&lt;div&gt;&amp;lt;&amp;lt;MongoDB&amp;gt;&amp;gt;&lt;/div&gt;&lt;div&gt;Users&lt;/div&gt;" style="shape=cylinder3;whiteSpace=wrap;html=1;boundedLbl=1;backgroundOutline=1;size=15;movable=1;resizable=1;rotatable=1;deletable=1;editable=1;locked=0;connectable=1;" vertex="1" parent="QcQdOetUA6qP5Ii0NC-2-150">
          <mxGeometry x="194" y="10" width="116" height="80" as="geometry" />
        </mxCell>
        <mxCell id="QcQdOetUA6qP5Ii0NC-2-149" value="localhost:8080" style="text;html=1;align=center;verticalAlign=middle;whiteSpace=wrap;rounded=0;" vertex="1" parent="QcQdOetUA6qP5Ii0NC-2-150">
          <mxGeometry x="100" y="90" width="90" height="30" as="geometry" />
        </mxCell>
        <mxCell id="QcQdOetUA6qP5Ii0NC-2-161" value="" style="group" vertex="1" connectable="0" parent="1">
          <mxGeometry x="400" y="380" width="320" height="130" as="geometry" />
        </mxCell>
        <mxCell id="QcQdOetUA6qP5Ii0NC-2-136" value="" style="rounded=0;whiteSpace=wrap;html=1;" vertex="1" parent="QcQdOetUA6qP5Ii0NC-2-161">
          <mxGeometry width="320" height="130" as="geometry" />
        </mxCell>
        <mxCell id="QcQdOetUA6qP5Ii0NC-2-112" value="OperationsManager" style="rounded=0;whiteSpace=wrap;html=1;" vertex="1" parent="QcQdOetUA6qP5Ii0NC-2-161">
          <mxGeometry x="13" y="20" width="120" height="60" as="geometry" />
        </mxCell>
        <mxCell id="QcQdOetUA6qP5Ii0NC-2-113" style="edgeStyle=orthogonalEdgeStyle;rounded=0;orthogonalLoop=1;jettySize=auto;html=1;startArrow=classic;startFill=1;" edge="1" parent="QcQdOetUA6qP5Ii0NC-2-161" source="QcQdOetUA6qP5Ii0NC-2-114" target="QcQdOetUA6qP5Ii0NC-2-112">
          <mxGeometry relative="1" as="geometry" />
        </mxCell>
        <mxCell id="QcQdOetUA6qP5Ii0NC-2-114" value="&lt;div&gt;&amp;lt;&amp;lt;MongoDB&amp;gt;&amp;gt;&lt;/div&gt;&lt;div&gt;Operations&lt;/div&gt;" style="shape=cylinder3;whiteSpace=wrap;html=1;boundedLbl=1;backgroundOutline=1;size=15;" vertex="1" parent="QcQdOetUA6qP5Ii0NC-2-161">
          <mxGeometry x="187" y="10" width="116" height="80" as="geometry" />
        </mxCell>
        <mxCell id="QcQdOetUA6qP5Ii0NC-2-160" value="localhost:8082" style="text;html=1;align=center;verticalAlign=middle;whiteSpace=wrap;rounded=0;" vertex="1" parent="QcQdOetUA6qP5Ii0NC-2-161">
          <mxGeometry x="110" y="90" width="100" height="30" as="geometry" />
        </mxCell>
        <mxCell id="QcQdOetUA6qP5Ii0NC-2-163" value="" style="group" vertex="1" connectable="0" parent="1">
          <mxGeometry x="400" y="590" width="320" height="130" as="geometry" />
        </mxCell>
        <mxCell id="QcQdOetUA6qP5Ii0NC-2-133" value="" style="rounded=0;whiteSpace=wrap;html=1;" vertex="1" parent="QcQdOetUA6qP5Ii0NC-2-163">
          <mxGeometry width="320" height="130" as="geometry" />
        </mxCell>
        <mxCell id="QcQdOetUA6qP5Ii0NC-2-120" style="edgeStyle=orthogonalEdgeStyle;rounded=0;orthogonalLoop=1;jettySize=auto;html=1;startArrow=classic;startFill=1;" edge="1" parent="QcQdOetUA6qP5Ii0NC-2-163" source="QcQdOetUA6qP5Ii0NC-2-116" target="QcQdOetUA6qP5Ii0NC-2-118">
          <mxGeometry relative="1" as="geometry" />
        </mxCell>
        <mxCell id="QcQdOetUA6qP5Ii0NC-2-116" value="AnimalManager" style="rounded=0;whiteSpace=wrap;html=1;" vertex="1" parent="QcQdOetUA6qP5Ii0NC-2-163">
          <mxGeometry x="13" y="20" width="120" height="60" as="geometry" />
        </mxCell>
        <mxCell id="QcQdOetUA6qP5Ii0NC-2-118" value="&lt;div&gt;&amp;lt;&amp;lt;MongoDB&amp;gt;&amp;gt;&lt;/div&gt;&lt;div&gt;&lt;span lang=&quot;en&quot; class=&quot;HwtZe&quot;&gt;&lt;span class=&quot;jCAhz ChMk0b&quot;&gt;&lt;span class=&quot;ryNqvb&quot;&gt;Deextinct&lt;/span&gt;&lt;/span&gt;&lt;/span&gt;Animals&lt;/div&gt;" style="shape=cylinder3;whiteSpace=wrap;html=1;boundedLbl=1;backgroundOutline=1;size=15;" vertex="1" parent="QcQdOetUA6qP5Ii0NC-2-163">
          <mxGeometry x="187" y="10" width="116" height="80" as="geometry" />
        </mxCell>
        <mxCell id="QcQdOetUA6qP5Ii0NC-2-162" value="&lt;div&gt;localhost:8083&lt;/div&gt;" style="text;html=1;align=center;verticalAlign=middle;whiteSpace=wrap;rounded=0;" vertex="1" parent="QcQdOetUA6qP5Ii0NC-2-163">
          <mxGeometry x="130" y="90" width="60" height="30" as="geometry" />
        </mxCell>
      </root>
    </mxGraphModel>
  </diagram>
</mxfile>
